PathFileType	4	(X/Y/Z)	./resultDataOpenSim/trcMotMarkerGrf/sub09/qtm-03-03.trc
DataRate	CameraRate	NumFrames	NumMarkers	Units	OrigDataRate	OrigDataStartFrame	OrigNumFrames
250.000000	250.000000	14	24	m	250.000000	299	478
Frame#	Time	L.Toe.Tip			R.Toe.Tip			L.Ankle.Lat			R.Ankle.Lat			L.Ankle.Med			R.Ankle.Med			L.Heel			R.Heel			L.Knee.Lat			R.Knee.Lat			L.Knee.Med			R.Knee.Med			L.Thigh.Upper			R.Thigh.Upper			L.ASIS			R.ASIS			V.Sacral			L.Acromium			R.Acromium			C7			L.Elbow			R.Elbow			L.Wrist.Lat			R.Wrist.Lat
		X1	Y1	Z1	X2	Y2	Z2	X3	Y3	Z3	X4	Y4	Z4	X5	Y5	Z5	X6	Y6	Z6	X7	Y7	Z7	X8	Y8	Z8	X9	Y9	Z9	X10	Y10	Z10	X11	Y11	Z11	X12	Y12	Z12	X13	Y13	Z13	X14	Y14	Z14	X15	Y15	Z15	X16	Y16	Z16	X17	Y17	Z17	X18	Y18	Z18	X19	Y19	Z19	X20	Y20	Z20	X21	Y21	Z21	X22	Y22	Z22	X23	Y23	Z23	X24	Y24	Z24

299	1.192	0.12196111	-0.0062466227	0.018719204	1.0080724	0.046447174	0.138065	0.052686667	0.12512461	-0.051996744	0.86006848	0.053500483	0.17509237	0.08163923	0.12686783	0.041904258	0.8635291	0.093053693	0.083189875	-0.018368387	0.14961143	-0.010230841	0.79251545	0.030324719	0.12704485	0.34722914	0.42889946	-0.080395625	0.79500712	0.51038526	0.2179857	0.34592941	0.4168778	0.045244918	0.77915431	0.48601282	0.09440675	0.49818494	0.81030668	-0.097298309	0.55544668	0.83059417	0.26882995	0.61666375	0.88159917	-0.056514722	0.62250078	0.90990903	0.18437178	0.45504235	0.9548758	0.076765423	0.62291812	1.3557881	-0.081986578	0.58073266	1.3560119	0.2463061	0.53347376	1.4046554	0.075976815	0.54057422	0.98610103	-0.15829206	0.4151283	1.0364022	0.31901279	0.79120909	0.88622415	-0.10780408	0.50786014	0.78186886	0.35853929
300	1.196	0.12331767	-0.0052204416	0.018290606	1.0088868	0.044831348	0.13652914	0.0576721	0.12848584	-0.052625685	0.86089939	0.053523139	0.17463798	0.087157101	0.12927478	0.041258435	0.86430607	0.092780377	0.082601437	-0.01226697	0.15469958	-0.010220978	0.79296388	0.030613068	0.12697787	0.35802424	0.42708752	-0.081065234	0.80372604	0.51167379	0.21797934	0.35365209	0.41568697	0.04561098	0.78670905	0.48773896	0.09432693	0.50639977	0.80901803	-0.096948164	0.56245538	0.83167529	0.26955693	0.62332863	0.88087365	-0.055501006	0.62956527	0.91038325	0.18507583	0.46254887	0.95471397	0.076664666	0.6299714	1.3555384	-0.081562282	0.58767464	1.3556044	0.24680707	0.54027725	1.4043092	0.076477856	0.54702274	0.98599685	-0.15779376	0.42264529	1.0357067	0.31950505	0.79702658	0.88469393	-0.10724097	0.51586	0.78124335	0.35914492
301	1.2	0.1248314	-0.0040187437	0.017839672	1.0096049	0.0437403	0.13519489	0.062960157	0.13203119	-0.053164493	0.86161225	0.053670525	0.17414721	0.092934225	0.13186209	0.040731116	0.86494797	0.092459287	0.081944757	-0.0057457477	0.16002273	-0.010131323	0.79343133	0.030855356	0.12685074	0.36917973	0.42514817	-0.081804669	0.81196147	0.51247509	0.21785025	0.36165597	0.4148858	0.046218061	0.79410413	0.48933953	0.094169038	0.51468204	0.80773625	-0.096568604	0.5694551	0.83278194	0.27043629	0.62864232	0.88042258	-0.05420968	0.63658071	0.91090253	0.1858002	0.47003543	0.95463079	0.07661286	0.63705716	1.3553518	-0.081118794	0.59460857	1.3552572	0.24728631	0.5470596	1.403977	0.076940696	0.55344259	0.98599654	-0.15729922	0.43015583	1.0350671	0.31998856	0.80277124	0.8831121	-0.10671781	0.52390429	0.78067974	0.35974233
302	1.204	0.12653555	-0.0026301355	0.017389418	1.010284	0.042908238	0.13429149	0.068583861	0.13573422	-0.053609278	0.86226288	0.053878303	0.17370958	0.099095482	0.13465761	0.040186753	0.86552992	0.092123208	0.081354336	0.0011901292	0.16554872	-0.0099763906	0.79386655	0.031079273	0.12675968	0.38044278	0.42313088	-0.082514889	0.8195695	0.51286178	0.2175187	0.37089409	0.41401953	0.046746326	0.80134541	0.4908286	0.093947124	0.52302291	0.80642922	-0.095981203	0.57640637	0.8338605	0.27140008	0.63412293	0.88004208	-0.052821986	0.64353891	0.91147915	0.18656996	0.47747739	0.95462361	0.076600165	0.64417147	1.3552243	-0.080660034	0.6015181	1.3549661	0.2477485	0.55383835	1.4036608	0.077375369	0.55982794	0.98608615	-0.1567987	0.4376966	1.0344615	0.32043156	0.80843378	0.88147314	-0.10623683	0.53199109	0.78017232	0.36033106
303	1.208	0.1284775	-0.0010308306	0.016962053	1.0109203	0.042208834	0.13383046	0.074563518	0.13956963	-0.053931209	0.86286102	0.054052714	0.17335182	0.1056423	0.13764958	0.039642672	0.86603057	0.09179839	0.080889697	0.0085143095	0.17124597	-0.009783379	0.79421869	0.031270713	0.12673716	0.39176067	0.42108096	-0.083203278	0.82663096	0.51294537	0.21708221	0.38270848	0.41251896	0.046597098	0.8084486	0.49220369	0.09366728	0.53136568	0.80510965	-0.095364623	0.58320907	0.83484842	0.27235377	0.64067157	0.87961123	-0.051477032	0.65043826	0.91212517	0.18739401	0.48485265	0.95468955	0.07662112	0.65129194	1.3551579	-0.080197365	0.60838278	1.3547338	0.24818999	0.56060883	1.4034113	0.077791275	0.5661781	0.9862567	-0.15628728	0.4452441	1.0338801	0.32079369	0.81399236	0.87978077	-0.10580933	0.54010845	0.77971776	0.36090666
304	1.212	0.13069533	0.00079904715	0.016560766	1.0114757	0.041638804	0.13366841	0.080914575	0.14351186	-0.054104644	0.86337476	0.054133475	0.17305608	0.11246128	0.14078799	0.039251225	0.86642963	0.091523604	0.080538734	0.016208872	0.17708428	-0.0095846601	0.79448239	0.031414765	0.12674651	0.40326433	0.41903198	-0.083913324	0.8333102	0.51280984	0.21670968	0.3973332	0.4100631	0.045313675	0.8154062	0.49343071	0.09334107	0.53966093	0.80382274	-0.094987895	0.58983488	0.83572203	0.27325093	0.64810617	0.87914806	-0.050202656	0.65727989	0.91284089	0.18826158	0.49214135	0.95482621	0.076674358	0.65839475	1.3551595	-0.079737484	0.61519993	1.3545714	0.24860837	0.56735668	1.4032705	0.0781892	0.57249779	0.98651176	-0.15577268	0.45275501	1.0333177	0.32106158	0.81943435	0.87804488	-0.10543839	0.54824384	0.77931847	0.36146424
305	1.216	0.13320417	0.0028558543	0.016165815	1.0119256	0.041214443	0.13360609	0.087676946	0.147544	-0.054152878	0.8637539	0.054127113	0.17279227	0.11955291	0.14403022	0.039046687	0.8667762	0.09132841	0.080244886	0.024287805	0.18302233	-0.0093896501	0.79468584	0.031519875	0.12672903	0.41502106	0.41699112	-0.084601735	0.83968257	0.5124996	0.21648994	0.41274219	0.40702142	0.04333463	0.82219134	0.49444083	0.092985377	0.54788443	0.80259176	-0.094840489	0.5963464	0.83649695	0.27409635	0.6557485	0.87871853	-0.048977606	0.66406536	0.91360978	0.1891526	0.49932443	0.95503175	0.076760237	0.66546874	1.3552295	-0.079277917	0.62197949	1.3544881	0.249006	0.57407192	1.4032392	0.078567546	0.57878985	0.98686097	-0.1552676	0.46023536	1.0327715	0.321276	0.82476762	0.87627137	-0.10511219	0.5563943	0.77897944	0.36200076
306	1.22	0.13600284	0.0051142554	0.015753948	1.0122836	0.040912226	0.13347737	0.094921205	0.1516719	-0.054134424	0.86397187	0.054075457	0.17254144	0.12708255	0.14736562	0.03888231	0.86715032	0.091199912	0.079945846	0.032783602	0.18901706	-0.0091809931	0.79486091	0.031603873	0.1266508	0.42692899	0.41492997	-0.0851627	0.84575088	0.51205435	0.21642389	0.42616521	0.40423467	0.041867861	0.82877031	0.49515606	0.092613141	0.5560091	0.80141415	-0.094660387	0.60281407	0.83719463	0.27490183	0.66316701	0.87836489	-0.047797471	0.67079628	0.91439977	0.19004919	0.50638281	0.95530469	0.076879224	0.67251062	1.3553597	-0.078816801	0.62872439	1.3544806	0.24938332	0.58075736	1.4032912	0.078923129	0.58505775	0.98730574	-0.15478185	0.46772125	1.0322516	0.32150164	0.83001215	0.87445609	-0.10481621	0.56457186	0.77870604	0.36251976
307	1.224	0.13908314	0.0075453766	0.015314511	1.0125793	0.040687863	0.13320556	0.10268439	0.155898	-0.054088446	0.86409892	0.053991888	0.17228404	0.13514254	0.15079263	0.038664832	0.86758647	0.091085908	0.079609256	0.041709631	0.19505351	-0.0089416037	0.79502288	0.031674068	0.12651836	0.4389248	0.41282286	-0.085547668	0.8515321	0.51152883	0.21646764	0.43675862	0.40217941	0.041693191	0.83509896	0.49553218	0.092227865	0.56400207	0.80029033	-0.094249584	0.6092715	0.83783034	0.27567146	0.67029421	0.87809904	-0.046661124	0.67747036	0.91517403	0.1909417	0.51329749	0.95564363	0.077031332	0.67951195	1.3555417	-0.078361582	0.6354289	1.3545375	0.24973662	0.58742738	1.4033973	0.079245915	0.5913084	0.98783263	-0.15432141	0.47521698	1.0317808	0.32176702	0.83518432	0.87259428	-0.10454637	0.57278781	0.77850367	0.3630252
308	1.228	0.14242843	0.010129877	0.014846542	1.0128263	0.040507079	0.13282053	0.11094193	0.16020563	-0.054026026	0.86427711	0.053851992	0.17201182	0.14360305	0.15429621	0.038500175	0.86805179	0.090932137	0.079248908	0.051042929	0.20115582	-0.0086743971	0.795166	0.0317263	0.12636632	0.4511301	0.41068495	-0.085797838	0.85707313	0.51098234	0.21652887	0.44602206	0.40064079	0.042626659	0.8411191	0.49558033	0.091830699	0.57184777	0.79923348	-0.093599844	0.6157239	0.83842186	0.27640774	0.67717032	0.87792038	-0.045550164	0.68407347	0.91590796	0.19182681	0.52005004	0.95604708	0.077216151	0.68645729	1.3557755	-0.077922544	0.64208461	1.3546535	0.25006314	0.59409904	1.403545	0.07952231	0.59754304	0.98842559	-0.15388671	0.48269368	1.0313776	0.32205638	0.84028254	0.87069829	-0.10431516	0.58103391	0.77837935	0.36351522
309	1.232	0.14601536	0.012861795	0.014353717	1.0130148	0.040353506	0.1324266	0.1196703	0.16459813	-0.053966946	0.86457011	0.053649256	0.1717726	0.15225817	0.15786674	0.038541041	0.86848071	0.090720645	0.078911175	0.060745592	0.20735816	-0.0083929878	0.79527198	0.03175535	0.12623424	0.46369146	0.40855693	-0.085969662	0.86242331	0.51046463	0.21647048	0.45610739	0.39912638	0.044047191	0.8467802	0.49535833	0.091430644	0.57955056	0.7982631	-0.092794251	0.62216848	0.83899305	0.277111	0.68383313	0.87783554	-0.044465869	0.69058541	0.91659762	0.19269947	0.52662264	0.95651342	0.077433259	0.69333153	1.3560682	-0.077505574	0.6486838	1.3548347	0.25036435	0.60076337	1.4037525	0.079752172	0.60375287	0.98907835	-0.15346774	0.49012501	1.0310509	0.32234105	0.84528985	0.8687976	-0.1041476	0.58928311	0.77834317	0.36398468
310	1.236	0.14982781	0.015751774	0.013849901	1.0131278	0.040225629	0.13212827	0.12885576	0.1691107	-0.053943923	0.8649209	0.053428124	0.17163547	0.1610256	0.16152595	0.038785538	0.86881661	0.090481032	0.078642315	0.070800267	0.21366099	-0.0081015511	0.79532434	0.031763387	0.12615078	0.47659556	0.40648088	-0.086065089	0.86762601	0.50999897	0.21618664	0.46825974	0.39727216	0.045284916	0.85207243	0.49495203	0.091041532	0.58711844	0.79739775	-0.091925224	0.62860838	0.83956551	0.27777785	0.6903473	0.87786435	-0.043456693	0.69700029	0.91725386	0.19354795	0.53299641	0.95704088	0.077683075	0.70012526	1.3564257	-0.077115448	0.65522598	1.3550932	0.25064323	0.6073732	1.4040508	0.079954225	0.60992835	0.98978856	-0.15305047	0.49750311	1.0308012	0.32260298	0.85018956	0.8669164	-0.10406827	0.59750257	0.77840458	0.36442571
311	1.24	0.15387083	0.018835958	0.013370227	1.0131618	0.040127519	0.1319616	0.13839785	0.17374833	-0.053947024	0.8652504	0.053252936	0.17160893	0.16996317	0.16530206	0.039103288	0.86903524	0.090266628	0.078462718	0.081222067	0.22001949	-0.0078033206	0.79531913	0.031760386	0.12612878	0.48969009	0.40450246	-0.086036779	0.87272267	0.50957968	0.21568763	0.48253001	0.39489304	0.045654027	0.85703828	0.49445547	0.090668959	0.59455166	0.79665257	-0.091071703	0.63505306	0.84015308	0.27840409	0.69675071	0.87802619	-0.042563473	0.70333561	0.91789331	0.19435823	0.53914704	0.9576278	0.077967968	0.70683607	1.3568482	-0.076756968	0.66171815	1.3554368	0.25089927	0.61388511	1.4044539	0.080146985	0.61607102	0.99054964	-0.15263186	0.50485498	1.0306049	0.32285799	0.8549694	0.86505685	-0.10408576	0.60567714	0.77856742	0.36483043
312	1.244	0.15818084	0.022177333	0.012971827	1.0131323	0.040056601	0.13188666	0.1480871	0.17844267	-0.053904569	0.86551258	0.053157845	0.171646	0.17916193	0.16918797	0.039389354	0.86914915	0.090115881	0.07836228	0.092039109	0.22637112	-0.0075453919	0.79526559	0.031756902	0.12616327	0.50282159	0.40267042	-0.085847821	0.87774057	0.50920528	0.21508631	0.4983863	0.39195015	0.044730074	0.86174764	0.49394907	0.09030474	0.60184203	0.79604192	-0.09027871	0.64150915	0.84076698	0.27898689	0.70302087	0.87832014	-0.041776094	0.70961555	0.91853309	0.19512127	0.54504002	0.95827326	0.078292118	0.71346264	1.3573315	-0.07643178	0.66816688	1.3558641	0.25112945	0.62029773	1.4049611	0.080334386	0.62219143	0.99135431	-0.15221935	0.51226545	1.0303979	0.32316885	0.85962606	0.8632081	-0.1041815	0.6138356	0.77883225	0.36519934
